<?xml version="1.0" encoding="iso-8859-1"?>
<!-- Uploaded to: SVG Repo, www.svgrepo.com, Generator: SVG Repo Mixer Tools -->
<svg height="800px" width="800px" version="1.1" id="Layer_1" xmlns="http://www.w3.org/2000/svg" xmlns:xlink="http://www.w3.org/1999/xlink" 
	 viewBox="0 0 512 512" xml:space="preserve">
<path style="fill:#72CCC5;" d="M351.589,125.159c-26.145-25.784-60.808-39.72-97.53-39.189
	C180.19,87,119.987,147.958,119.857,221.854c-0.083,47.621,24.076,91.024,64.628,116.102c7.557,4.674,12.252,13.161,12.252,22.15
	v49.922c0,4.423,3.585,8.008,8.008,8.008h102.507c4.424,0,8.008-3.586,8.008-8.008v-50.129c0-8.971,4.679-17.236,12.515-22.107
	c40.303-25.051,64.365-68.302,64.365-115.694C392.142,185.374,377.741,150.947,351.589,125.159z"/>
<path style="fill:#11BBA3;" d="M230.373,410.027v-49.923c0-8.989-4.694-17.475-12.252-22.15
	c-40.553-25.078-64.712-68.481-64.628-116.102c0.122-68.904,52.476-126.55,119.435-134.859c-6.207-0.763-12.506-1.116-18.87-1.024
	c-73.869,1.03-134.071,61.988-134.202,135.883c-0.083,47.621,24.076,91.024,64.628,116.102c7.557,4.674,12.252,13.161,12.252,22.15
	v49.923c0,4.423,3.585,8.008,8.008,8.008h33.635C233.959,418.035,230.373,414.45,230.373,410.027z"/>
<g>
	<path style="fill:#66BF00;" d="M323.393,202.481l-5.029-15.086h14.516c2.678,0,5.179-1.338,6.663-3.566l17.084-25.627
		c0.308-0.461,0.566-0.954,0.773-1.468l5.148-12.871c1.084-2.71,0.606-5.796-1.244-8.053C335.315,104.128,296.932,85.956,256,85.956
		c-25.446,0-50.274,7.075-71.799,20.463c-2.369,1.474-3.801,4.074-3.779,6.865c0.022,2.79,1.495,5.368,3.889,6.803l24.858,14.915
		c0.175,0.106,0.356,0.204,0.538,0.296l26.055,13.028l-12.052,18.077c-1.594,2.391-1.785,5.453-0.5,8.023l17.084,34.169
		c1.357,2.713,4.129,4.427,7.163,4.427h29.883l14.707,22.06c3.115,4.673,10.211,4.674,13.326,0l17.084-25.627
		C323.83,207.399,324.174,204.826,323.393,202.481z"/>
	<path style="fill:#66BF00;" d="M246.078,244.143c-1.357-2.713-4.129-4.427-7.163-4.427h-30.852l-23.281-23.281
		c-1.502-1.502-3.539-2.346-5.663-2.346h-23.202l-22.57-15.046c-4.864-3.243-11.648-0.133-12.386,5.65
		c-0.734,5.739-1.104,11.596-1.104,17.406c0,26.113,7.415,51.483,21.444,73.37c13.654,21.303,32.895,38.36,55.641,49.327
		c4.287,2.068,9.574-0.176,11.075-4.681l12.868-38.603c0.672-2.015,0.515-4.215-0.435-6.114l-2.747-5.495h38.296
		c5.841,0,9.782-6.355,7.163-11.59L246.078,244.143z"/>
</g>
<g>
	<path style="fill:#58AB23;" d="M256,85.956c-25.446,0-50.274,7.075-71.799,20.463c-4.994,3.106-4.935,10.641,0.11,13.668
		l9.464,5.678c20.902-20.809,48.456-34.941,79.073-38.76C267.297,86.318,261.674,85.956,256,85.956z"/>
	<path style="fill:#58AB23;" d="M153.493,221.854c0.005-3.076,0.124-6.128,0.334-9.156l-20.48-13.654
		c-2.304-1.537-5.242-1.774-7.765-0.622c-2.522,1.15-4.27,3.523-4.62,6.272c-0.734,5.739-1.104,11.596-1.104,17.406
		c0,26.113,7.415,51.483,21.444,73.37c13.654,21.303,32.895,38.36,55.641,49.327c1.097,0.53,2.287,0.794,3.478,0.794
		c1.059,0,2.12-0.21,3.118-0.632c2.12-0.896,3.752-2.661,4.479-4.844l2.424-7.272C174.54,307.223,153.415,266.384,153.493,221.854z"
		/>
</g>
<path style="fill:#66BF00;" d="M389.409,219.792c-1.761-1.573-4.129-2.283-6.464-1.953l-34.113,4.873
	c-2.017,0.288-3.848,1.335-5.121,2.926l-34.169,42.711c-2.178,2.723-2.344,6.543-0.41,9.444l16.206,24.309l4.118,20.597
	c1.162,5.811,8.345,8.392,12.938,4.616c30.471-25.048,48.582-61.978,49.688-101.324C392.15,223.632,391.171,221.363,389.409,219.792
	z"/>
<path style="fill:#B9873C;" d="M324.338,376.392H187.662c-4.424,0-8.008,3.586-8.008,8.008v68.338
	c0,32.677,26.584,59.262,59.262,59.262h34.169c32.677,0,59.262-26.585,59.262-59.262V384.4
	C332.346,379.978,328.762,376.392,324.338,376.392z"/>
<path style="fill:#A3682D;" d="M332.346,427.112v-17.084H213.289v-33.635h-25.627c-4.424,0-8.008,3.586-8.008,8.008
	c0,0-0.159,71.156,0.567,76.427C184.18,489.69,208.985,512,238.916,512h33.635c-29.827,0-54.498-22.039-58.64-50.719h117.811
	c0.405-2.791,0.624-5.641,0.624-8.542v-8.542H213.288v-17.084H332.346z"/>
<g>
	<path style="fill:#FFC552;" d="M256,59.796c-4.717,0-8.542-3.825-8.542-8.542V8.542C247.458,3.825,251.283,0,256,0
		s8.542,3.825,8.542,8.542v42.711C264.542,55.971,260.717,59.796,256,59.796z"/>
	<path style="fill:#FFC552;" d="M166.315,83.83c-2.953,0-5.824-1.532-7.406-4.272l-21.356-36.989
		c-2.36-4.085-0.959-9.31,3.126-11.669c4.087-2.358,9.311-0.958,11.669,3.126l21.356,36.989
		C176.925,76.592,172.792,83.83,166.315,83.83z"/>
	<path style="fill:#FFC552;" d="M100.638,149.49c-1.449,0-2.917-0.369-4.263-1.146l-36.989-21.356
		c-4.085-2.359-5.486-7.583-3.126-11.669c2.358-4.086,7.583-5.486,11.669-3.126l36.989,21.356c3.183,1.838,4.864,5.633,4.076,9.225
		C108.144,146.652,104.606,149.49,100.638,149.49z"/>
	<path style="fill:#FFC552;" d="M76.613,239.182H33.902c-4.717,0-8.542-3.825-8.542-8.542c0-4.717,3.825-8.542,8.542-8.542h42.711
		c4.717,0,8.542,3.825,8.542,8.542C85.155,235.358,81.331,239.182,76.613,239.182z"/>
	<path style="fill:#FFC552;" d="M63.666,350.233c-3.968,0-7.505-2.839-8.355-6.716c-0.788-3.592,0.893-7.387,4.076-9.225
		l36.989-21.356c4.087-2.359,9.311-0.958,11.669,3.126c2.36,4.085,0.959,9.31-3.126,11.669l-36.989,21.356
		C66.583,349.863,65.114,350.233,63.666,350.233z"/>
	<path style="fill:#FFC552;" d="M448.334,350.233c-1.449,0-2.917-0.369-4.263-1.146l-36.989-21.356
		c-4.085-2.359-5.486-7.583-3.126-11.669c2.359-4.086,7.582-5.487,11.669-3.126l36.989,21.356c3.183,1.838,4.864,5.633,4.076,9.225
		C455.839,347.394,452.302,350.233,448.334,350.233z"/>
	<path style="fill:#FFC552;" d="M478.098,239.182h-42.711c-4.717,0-8.542-3.825-8.542-8.542c0-4.717,3.825-8.542,8.542-8.542h42.711
		c4.717,0,8.542,3.825,8.542,8.542C486.64,235.358,482.815,239.182,478.098,239.182z"/>
	<path style="fill:#FFC552;" d="M411.362,149.49c-3.968,0-7.505-2.839-8.355-6.716c-0.788-3.592,0.893-7.387,4.076-9.225
		l36.989-21.356c4.086-2.36,9.311-0.957,11.669,3.126c2.36,4.085,0.959,9.31-3.126,11.669l-36.989,21.356
		C414.279,149.121,412.81,149.49,411.362,149.49z"/>
	<path style="fill:#FFC552;" d="M345.685,83.83c-6.477,0-10.611-7.238-7.389-12.814l21.356-36.989
		c2.358-4.086,7.582-5.486,11.669-3.126c4.085,2.359,5.486,7.583,3.126,11.669l-21.356,36.989
		C351.509,82.298,348.637,83.83,345.685,83.83z"/>
</g>
</svg>