<?xml version="1.0" encoding="iso-8859-1"?>
<!-- Uploaded to: SVG Repo, www.svgrepo.com, Generator: SVG Repo Mixer Tools -->
<svg version="1.1" id="Layer_1" xmlns="http://www.w3.org/2000/svg" xmlns:xlink="http://www.w3.org/1999/xlink" 
	 viewBox="0 0 512 512" xml:space="preserve">
<path style="fill:#E1EAF6;" d="M500.967,225.307V423.86H329.874V225.307H500.967z M434.54,379.73c0-10.569-8.561-19.13-19.119-19.13
	c-10.558,0-19.119,8.561-19.119,19.13c0,10.558,8.561,19.119,19.119,19.119C425.979,398.849,434.54,390.288,434.54,379.73z"/>
<g>
	<rect x="329.874" y="156.728" style="fill:#9DA6BA;" width="171.093" height="68.579"/>
	<rect x="329.874" y="88.139" style="fill:#9DA6BA;" width="171.093" height="68.59"/>
	<path style="fill:#9DA6BA;" d="M415.421,360.599c10.558,0,19.119,8.561,19.119,19.13c0,10.558-8.561,19.119-19.119,19.119
		c-10.558,0-19.119-8.561-19.119-19.119C396.301,369.161,404.863,360.599,415.421,360.599z"/>
</g>
<polygon style="fill:#E1EAF6;" points="278.021,318.576 278.021,363.666 144.527,363.666 11.033,363.666 11.033,318.576 "/>
<rect x="11.033" y="169.162" style="fill:#94D8F2;" width="266.988" height="149.414"/>
<path d="M500.967,77.106H329.874c-6.092,0-11.033,4.94-11.033,11.033v68.59v68.579V423.86c0,6.092,4.94,11.033,11.033,11.033
	h171.093c6.092,0,11.033-4.94,11.033-11.033V225.307v-68.579v-68.59C512,82.045,507.061,77.106,500.967,77.106z M340.907,167.761
	h149.028v46.513H340.907V167.761z M489.935,99.171v46.524H340.907V99.171H489.935z M340.907,412.828V236.339h149.028v176.488
	H340.907z"/>
<path d="M415.421,179.985h-50.154c-6.092,0-11.033,4.94-11.033,11.033s4.94,11.033,11.033,11.033h50.154
	c6.092,0,11.033-4.94,11.033-11.033S421.514,179.985,415.421,179.985z"/>
<path d="M365.267,133.461h100.308c6.092,0,11.033-4.94,11.033-11.033s-4.94-11.033-11.033-11.033H365.267
	c-6.092,0-11.033,4.94-11.033,11.033S359.175,133.461,365.267,133.461z"/>
<path d="M415.421,349.567c-16.626,0-30.152,13.531-30.152,30.164c0,16.626,13.526,30.152,30.152,30.152
	c16.626,0,30.152-13.526,30.152-30.152C445.573,363.097,432.047,349.567,415.421,349.567z M415.421,387.818
	c-4.459,0-8.087-3.628-8.087-8.087c0-4.466,3.628-8.099,8.087-8.099c4.459,0,8.087,3.633,8.087,8.099
	C423.508,384.189,419.88,387.818,415.421,387.818z"/>
<path d="M415.421,339.726c6.092,0,11.033-4.94,11.033-11.033v-22.352c0-6.092-4.94-11.033-11.033-11.033s-11.033,4.94-11.033,11.033
	v22.352C404.388,334.785,409.329,339.726,415.421,339.726z"/>
<path d="M133.494,374.699v38.13h-54.06c-6.093,0-11.033,4.94-11.033,11.033s4.939,11.033,11.033,11.033h130.184
	c6.093,0,11.033-4.94,11.033-11.033s-4.939-11.033-11.033-11.033h-54.06v-38.13h122.462c6.092,0,11.033-4.94,11.033-11.033V169.162
	c0-6.092-4.94-11.033-11.033-11.033H11.033C4.939,158.129,0,163.07,0,169.162v194.504c0,6.092,4.939,11.033,11.033,11.033H133.494z
	 M266.988,180.195v172.439H22.065v-23.025h184.84c6.093,0,11.033-4.94,11.033-11.033s-4.939-11.033-11.033-11.033H22.065V180.195
	H266.988z"/>
<path d="M240.739,329.609h4.78c6.092,0,11.033-4.94,11.033-11.033s-4.94-11.033-11.033-11.033h-4.78
	c-6.093,0-11.033,4.94-11.033,11.033S234.645,329.609,240.739,329.609z"/>
<path d="M465.575,179.985h-13.614c-6.092,0-11.033,4.94-11.033,11.033s4.94,11.033,11.033,11.033h13.614
	c6.092,0,11.033-4.94,11.033-11.033S471.667,179.985,465.575,179.985z"/>
</svg>