<?xml version="1.0" encoding="iso-8859-1"?>
<!-- Uploaded to: SVG Repo, www.svgrepo.com, Generator: SVG Repo Mixer Tools -->
<svg height="800px" width="800px" version="1.1" id="Layer_1" xmlns="http://www.w3.org/2000/svg" xmlns:xlink="http://www.w3.org/1999/xlink" 
	 viewBox="0 0 512 512" xml:space="preserve">
<circle style="fill:#273B7A;" cx="256" cy="256" r="256"/>
<g>
	<path style="fill:#121149;" d="M499.243,335.974L314.109,150.84l4.525,93.667l1.453,1.453l-9.573,0.627L175.547,111.619l2.3,26.577
		l1.15,1.15l-38.21,38.216l-1.652-1.652l-25.788-2.084L404.249,464.73C448.315,433.376,482.013,388.41,499.243,335.974z"/>
	<path style="fill:#121149;" d="M353.844,492.618L175.981,314.756l0.85,16.653l3.172,6.404l-3.879,22.769l-13.002-13.002
		l-19.035-0.934l160.689,160.689C321.795,504.055,338.21,499.091,353.844,492.618z"/>
</g>
<path style="fill:#FFC61B;" d="M175.55,236.03c0-60.23-62.204-62.204-62.204-62.204c60.23,0,62.204-62.204,62.204-62.204
	c0,60.23,62.204,62.204,62.204,62.204C177.524,173.827,175.55,236.03,175.55,236.03z"/>
<path style="fill:#E09112;" d="M175.55,111.621c0,60.23,62.204,62.204,62.204,62.204c-60.23,0-62.204,62.204-62.204,62.204V111.621z
	"/>
<path style="fill:#FFC61B;" d="M175.981,378.54c0-30.88-31.892-31.892-31.892-31.892c30.88,0,31.892-31.892,31.892-31.892
	c0,30.88,31.892,31.892,31.892,31.892C176.995,346.648,175.981,378.54,175.981,378.54z"/>
<path style="fill:#E09112;" d="M175.981,314.756c0,30.88,31.892,31.892,31.892,31.892c-30.88,0-31.892,31.892-31.892,31.892V314.756
	z"/>
<path style="fill:#FFC61B;" d="M314.109,355.268c0-98.968-102.214-102.214-102.214-102.214
	c98.968,0,102.214-102.214,102.214-102.214c0,98.968,102.214,102.214,102.214,102.214
	C317.356,253.054,314.109,355.268,314.109,355.268z"/>
<path style="fill:#E09112;" d="M314.109,150.84c0,98.968,102.214,102.214,102.214,102.214
	c-98.968,0-102.214,102.214-102.214,102.214V150.84z"/>
</svg>