<?xml version="1.0" ?>
<!DOCTYPE svg  PUBLIC '-//W3C//DTD SVG 1.1//EN'  'http://www.w3.org/Graphics/SVG/1.1/DTD/svg11.dtd'>
<!-- Uploaded to: SVG Repo, www.svgrepo.com, Generator: SVG Repo Mixer Tools -->
<svg width="800px" height="800px" viewBox="0 0 50 50" enable-background="new 0 0 50 50" id="Layer_1" version="1.1" xml:space="preserve" xmlns="http://www.w3.org/2000/svg" xmlns:xlink="http://www.w3.org/1999/xlink">
<g>
<g>
<g>
<path d="M46.44694,32.83104H16.74721c-1.41,0-2.55303-1.14303-2.55303-2.55303V6.77378     c0-1.41,1.14303-2.55303,2.55303-2.55303h29.69972c1.41,0,2.55303,1.14303,2.55303,2.55303v23.50423     C48.99997,31.68801,47.85693,32.83104,46.44694,32.83104z" fill="#D2D2D2"/>
<path d="M48.99997,9.31562V6.77377c0-1.41002-1.14302-2.55305-2.55301-2.55305H16.7472     c-1.40998,0-2.55301,1.14303-2.55301,2.55305v2.54184H48.99997z" fill="#53B1E2"/>
<path d="M25.84299,9.78525h-9.14655V7.81336c0-0.48983,0.39709-0.88692,0.88692-0.88692h7.37272     c0.48983,0,0.88692,0.39709,0.88692,0.88692V9.78525z" fill="#D2D2D2"/>
<path d="M34.98955,9.31562h-9.14656V7.81336c0-0.48983,0.39709-0.88692,0.88692-0.88692h7.37272     c0.48983,0,0.88692,0.39709,0.88692,0.88692V9.31562z" fill="#BBBBBB"/>
<circle cx="45.76987" cy="6.98715" fill="#E7E3E6" r="0.97859"/>
<circle cx="42.78568" cy="6.98715" fill="#E7E3E6" r="0.97859"/>
<circle cx="39.80148" cy="6.98715" fill="#E7E3E6" r="0.97859"/>
<g>
<rect fill="#85BD57" height="17.93192" width="10.02372" x="17.29741" y="11.53711"/>
<rect fill="#EC6E62" height="6.96728" width="17.28085" x="29.25823" y="11.53711"/>
<rect fill="#BBBBBB" height="2.04096" width="17.28085" x="29.25823" y="20.40004"/>
<rect fill="#BBBBBB" height="2.04096" width="17.28085" x="29.25823" y="23.91406"/>
<rect fill="#BBBBBB" height="2.04096" width="17.28085" x="29.25823" y="27.42809"/>
</g>
</g>
<g>
<path d="M33.25272,45.77927H3.553c-1.41,0-2.55303-1.14303-2.55303-2.55303V19.72201     c0-1.41,1.14303-2.55303,2.55303-2.55303h29.69972c1.41,0,2.55303,1.14303,2.55303,2.55303v23.50423     C35.80575,44.63625,34.66272,45.77927,33.25272,45.77927z" fill="#E7E3E6"/>
<path d="M35.80576,22.26385v-2.54184c0-1.41002-1.14303-2.55305-2.55301-2.55305H3.55299     c-1.40998,0-2.55301,1.14303-2.55301,2.55305v2.54184H35.80576z" fill="#53B1E2"/>
<path d="M12.64878,22.73349H3.50222V20.7616c0-0.48983,0.39709-0.88692,0.88692-0.88692h7.37272     c0.48983,0,0.88692,0.39709,0.88692,0.88692V22.73349z" fill="#E7E3E6"/>
<path d="M21.79534,22.26385h-9.14656V20.7616c0-0.48983,0.39709-0.88692,0.88692-0.88692h7.37272     c0.48983,0,0.88692,0.39709,0.88692,0.88692V22.26385z" fill="#D2D2D2"/>
<circle cx="32.57565" cy="19.93539" fill="#E7E3E6" r="0.97859"/>
<circle cx="29.59146" cy="19.93539" fill="#E7E3E6" r="0.97859"/>
<circle cx="26.60727" cy="19.93539" fill="#E7E3E6" r="0.97859"/>
<g>
<rect fill="#9A7CA8" height="17.93192" width="10.02372" x="4.10319" y="24.48535"/>
<rect fill="#BA8C5C" height="6.96728" width="17.28085" x="16.06401" y="24.48536"/>
<rect fill="#D2D2D2" height="2.04096" width="17.28085" x="16.06401" y="33.34827"/>
<rect fill="#D2D2D2" height="2.04096" width="17.28085" x="16.06401" y="36.86229"/>
<rect fill="#D2D2D2" height="2.04096" width="17.28085" x="16.06401" y="40.37631"/>
</g>
</g>
</g>
<path d="M46.02722,38.98783v0.82645c0,0.3572-0.28957,0.64677-0.64677,0.64677h-2.30318v2.30324   c0,0.3572-0.28957,0.64677-0.64677,0.64677h-0.82645c-0.3572,0-0.64677-0.28957-0.64677-0.64677v-2.30324h-2.30324   c-0.3572,0-0.64677-0.28957-0.64677-0.64677v-0.82645c0-0.3572,0.28957-0.64677,0.64677-0.64677h2.30324v-2.30318   c0-0.3572,0.28957-0.64677,0.64677-0.64677h0.82645c0.3572,0,0.64677,0.28957,0.64677,0.64677v2.30318h2.30318   C45.73765,38.34106,46.02722,38.63063,46.02722,38.98783z" fill="#FFC966"/>
<path d="M10.49373,10.29321v0.82645c0,0.3572-0.28957,0.64677-0.64677,0.64677H7.54378v2.30324   c0,0.3572-0.28957,0.64677-0.64677,0.64677H6.07056c-0.3572,0-0.64677-0.28957-0.64677-0.64677v-2.30324H3.12054   c-0.3572,0-0.64677-0.28957-0.64677-0.64677v-0.82645c0-0.3572,0.28957-0.64678,0.64677-0.64678h2.30324V7.34326   c0-0.3572,0.28957-0.64677,0.64677-0.64677H6.897c0.3572,0,0.64677,0.28957,0.64677,0.64677v2.30318h2.30318   C10.20416,9.64643,10.49373,9.936,10.49373,10.29321z" fill="#EC6E62"/>
</g>
</svg>