<svg width="1029" height="838" xmlns="http://www.w3.org/2000/svg" xmlns:xlink="http://www.w3.org/1999/xlink" xml:space="preserve" overflow="hidden"><g transform="translate(-1582 -1322)"><path d="M1856 1995C1717.38 1993.48 1607.2 1985.56 1607 1974.27 1614.22 1912.76 1628.68 1643.64 1607 1591.73 1611.78 1578.83 1722.24 1582.13 1856 1571" stroke="#00B0F0" stroke-width="45.8333" stroke-miterlimit="8" fill="none" fill-rule="evenodd"/><path d="M2329 1488C2466.49 1487.86 2576.61 1496.71 2578 1508.73 2576.31 1549.29 2599.23 1774.79 2578 1891.27 2565.86 1912.21 2462.38 1915.01 2329 1912" stroke="#00B0F0" stroke-width="45.8333" stroke-miterlimit="8" fill="none" fill-rule="evenodd"/><path d="M2200 1979C2199.83 2065.74 2194.79 2135.13 2186.91 2136 2042.09 2135.01 1924.19 2108.2 1849.09 2136 1831.56 2132.78 1836.13 2063.71 1836 1979" stroke="#00B0F0" stroke-width="45.8333" stroke-miterlimit="8" fill="none" fill-rule="evenodd"/><path d="M1983 1507C1983.72 1421.43 1988.91 1351.61 1996.05 1351 2135.5 1345.11 2224.63 1342.19 2332.95 1351 2344.1 1364.05 2339.46 1423.64 2346 1507" stroke="#00B0F0" stroke-width="45.8333" stroke-miterlimit="8" fill="none" fill-rule="evenodd"/><path d="M1960 1743 2219.84 1743" stroke="#00B0F0" stroke-width="45.8333" stroke-miterlimit="8" fill="none" fill-rule="evenodd"/><path d="M2200 1722 2200 1981.84" stroke="#00B0F0" stroke-width="45.8333" stroke-miterlimit="8" fill="none" fill-rule="evenodd"/><path d="M1983 1502 1983 1761.84" stroke="#00B0F0" stroke-width="45.8333" stroke-miterlimit="8" fill="none" fill-rule="evenodd"/></g></svg>